<svg width="679" height="269" viewBox="0 0 679 269" fill="none" xmlns="http://www.w3.org/2000/svg">
<path d="M93.94 39.04C94.3933 41.5333 94.5633 44.0267 94.45 46.52C94.45 48.9 94.3933 51.2233 94.28 53.49C94.28 55.7567 94.3367 57.9667 94.45 60.12C94.6767 62.16 95.2433 64.0867 96.15 65.9C95.81 66.4667 95.13 67.6 94.11 69.3C93.2033 71 92.5233 72.7567 92.07 74.57C91.6167 76.27 91.6733 77.5733 92.24 78.48C92.8067 79.3867 93.0333 79.9533 92.92 80.18C92.8067 80.52 92.6933 80.9167 92.58 81.37C92.4667 81.71 92.2967 82.1633 92.07 82.73C91.73 83.6367 91.1633 84.77 90.37 86.13C89.69 87.49 88.7267 89.0767 87.48 90.89C86.2333 92.7033 85.3833 94.29 84.93 95.65C84.59 96.8967 84.3633 98.03 84.25 99.05C84.25 100.07 84.25 100.977 84.25 101.77C84.25 102.563 84.0233 103.3 83.57 103.98C83.3433 104.207 82.8333 104.377 82.04 104.49C81.2467 104.49 80.2833 104.603 79.15 104.83C78.0167 105.057 76.77 105.453 75.41 106.02C74.1633 106.473 72.9733 107.21 71.84 108.23C69.6867 108.683 67.9867 109.307 66.74 110.1C65.6067 110.78 63.85 111.233 61.47 111.46C58.8633 112.027 57.1067 112.763 56.2 113.67C55.2933 114.463 54.67 114.86 54.33 114.86C51.0433 114.86 48.4933 114.973 46.68 115.2C44.8667 115.313 43.6767 115.483 43.11 115.71L41.41 116.05C41.07 116.163 40.3333 116.22 39.2 116.22L15.4 108.91L3.33 95.31C3.33 91.7967 3.27333 88.85 3.16 86.47C3.16 83.9767 3.10333 81.8233 2.99 80.01C2.99 78.0833 2.99 76.27 2.99 74.57C2.99 72.87 3.04667 71 3.16 68.96C3.61333 68.62 4.35 67.6 5.37 65.9C6.50333 64.0867 7.63667 62.1033 8.77 59.95C9.90333 57.6833 10.98 55.36 12 52.98C13.02 50.6 13.8133 48.6167 14.38 47.03C14.8333 45.33 15.23 44.0267 15.57 43.12C15.91 42.1 16.1933 41.25 16.42 40.57C16.76 39.89 17.0433 39.21 17.27 38.53C17.4967 37.85 17.7233 37 17.95 35.98L22.37 31.56C22.37 31.4467 22.9933 30.6533 24.24 29.18C25.6 27.5933 27.13 25.8933 28.83 24.08C30.6433 22.1533 32.5133 20.3967 34.44 18.81C36.3667 17.2233 37.9533 16.3733 39.2 16.26L47.53 15.41L50.93 15.75C51.3833 15.8633 51.78 15.92 52.12 15.92C52.5733 15.92 52.97 15.92 53.31 15.92H54.5L60.28 21.19C60.3933 22.4367 60.6767 23.4567 61.13 24.25C61.6967 25.0433 62.83 25.6667 64.53 26.12C66.3433 26.5733 67.3067 26.8 67.42 26.8C67.5333 26.9133 67.5333 27.0267 67.42 27.14C69.5733 27.14 71.84 26.5733 74.22 25.44C76.6 24.1933 78.9233 23.57 81.19 23.57C81.7567 23.57 82.38 23.8533 83.06 24.42C83.74 24.9867 84.42 25.6667 85.1 26.46L87.14 28.67C87.82 29.4633 88.4433 29.9167 89.01 30.03C88.7833 32.1833 88.84 33.77 89.18 34.79C89.6333 35.6967 90.1433 36.3767 90.71 36.83C91.39 37.17 92.0133 37.4533 92.58 37.68C93.26 37.9067 93.7133 38.36 93.94 39.04ZM65.38 90.72C66.06 90.2667 66.6267 89.9833 67.08 89.87C67.5333 89.6433 67.93 89.3033 68.27 88.85C68.7233 88.3967 69.12 87.66 69.46 86.64C69.9133 85.5067 70.4233 83.8067 70.99 81.54C71.67 79.2733 72.2367 77.4033 72.69 75.93C73.1433 74.3433 73.4833 73.04 73.71 72.02C73.9367 70.8867 74.1067 69.8667 74.22 68.96C74.3333 68.0533 74.39 67.09 74.39 66.07C74.39 64.1433 74.5033 61.99 74.73 59.61C74.9567 57.1167 74.73 54.51 74.05 51.79C73.4833 49.8633 73.0867 47.71 72.86 45.33C72.7467 42.95 72.5767 40.91 72.35 39.21C71.2167 38.53 70.5367 37.4533 70.31 35.98C70.0833 34.5067 69.3467 33.09 68.1 31.73C67.42 31.1633 66.6833 30.8233 65.89 30.71C65.21 30.5967 64.53 30.5967 63.85 30.71C63.2833 30.8233 62.7167 30.9933 62.15 31.22C61.6967 31.4467 61.3567 31.56 61.13 31.56C60.79 31.56 60.11 31.5033 59.09 31.39C58.07 31.1633 56.88 31.1067 55.52 31.22C54.2733 31.22 52.97 31.4467 51.61 31.9C50.3633 32.24 49.3433 32.9767 48.55 34.11C45.0367 38.0767 42.9967 40.57 42.43 41.59C40.8433 44.5367 39.4267 47.37 38.18 50.09C37.0467 52.81 36.0267 54.85 35.12 56.21C34.6667 57.3433 33.7033 59.0433 32.23 61.31C30.87 63.5767 30.19 66.8067 30.19 71C30.3033 71.34 30.1333 72.19 29.68 73.55C29.2267 74.7967 28.7733 76.3267 28.32 78.14C27.98 79.9533 27.6967 81.8233 27.47 83.75C27.2433 85.5633 27.4133 87.2067 27.98 88.68C28.4333 89.8133 29.3967 91.6267 30.87 94.12C32.3433 96.5 34.8933 99.05 38.52 101.77C40.7867 103.243 42.3167 104.773 43.11 106.36C43.9033 107.833 44.5833 108.57 45.15 108.57C45.7167 108.57 46.6233 108.57 47.87 108.57C49.1167 108.457 50.0233 108.683 50.59 109.25L65.38 90.72ZM178.86 0.279997L194.33 1.29999C196.484 1.29999 197.334 2.49 196.88 4.87C195.974 6.68333 195.294 9.06333 194.84 12.01C194.387 14.8433 194.047 17.96 193.82 21.36C192.46 31.4467 191.44 40.2867 190.76 47.88C190.194 55.36 189.74 61.7067 189.4 66.92C189.06 72.1333 188.72 76.27 188.38 79.33C188.154 82.39 187.757 84.4867 187.19 85.62L188.55 99.9L187.87 102.62C188.21 103.527 188.55 104.433 188.89 105.34C189.344 106.133 189.684 106.813 189.91 107.38C190.364 108.287 190.647 108.91 190.76 109.25C190.76 109.817 190.307 110.44 189.4 111.12C188.607 111.8 187.587 112.48 186.34 113.16C185.094 113.84 183.734 114.52 182.26 115.2C180.787 115.767 179.427 116.277 178.18 116.73C177.16 116.617 176.367 116.447 175.8 116.22C175.347 115.993 174.95 115.653 174.61 115.2C174.27 114.747 173.93 114.123 173.59 113.33C173.364 112.537 172.91 111.517 172.23 110.27C171.097 109.817 169.567 109.703 167.64 109.93C165.714 110.043 164.127 110.667 162.88 111.8C162.427 113.047 161.974 113.897 161.52 114.35C161.18 114.803 160.784 115.2 160.33 115.54C159.99 115.767 159.537 115.993 158.97 116.22C158.404 116.447 157.724 116.9 156.93 117.58C153.984 117.807 151.547 117.92 149.62 117.92C147.807 117.92 146.164 117.807 144.69 117.58C143.33 117.24 142.027 116.843 140.78 116.39C139.534 115.823 138.117 115.087 136.53 114.18C134.15 113.84 132.11 113.33 130.41 112.65C128.824 111.97 127.464 111.233 126.33 110.44C125.31 109.533 124.404 108.627 123.61 107.72C122.817 106.7 122.08 105.793 121.4 105L114.09 88.68L115.28 74.57C116.187 74.0033 116.867 73.6067 117.32 73.38C117.887 73.1533 118.34 72.9267 118.68 72.7C119.02 72.4733 119.304 72.19 119.53 71.85C119.87 71.3967 120.267 70.66 120.72 69.64C121.06 69.5267 121.287 69.1867 121.4 68.62C121.627 68.0533 121.684 67.43 121.57 66.75C121.57 66.07 121.457 65.39 121.23 64.71C121.004 64.03 120.664 63.52 120.21 63.18L125.99 54.34C126.33 54.34 126.954 54.0567 127.86 53.49C128.767 52.81 129.844 52.0733 131.09 51.28C132.337 50.3733 133.697 49.5233 135.17 48.73C136.757 47.9367 138.4 47.37 140.1 47.03C143.274 46.1233 145.71 45.67 147.41 45.67C149.11 45.5567 150.13 45.4433 150.47 45.33C151.15 45.7833 151.944 46.1233 152.85 46.35C153.757 46.5767 154.607 46.8033 155.4 47.03C156.307 47.1433 157.044 47.2567 157.61 47.37C158.29 47.37 158.687 47.37 158.8 47.37C158.914 47.37 159.084 47.71 159.31 48.39C159.537 49.07 159.82 49.92 160.16 50.94C160.5 51.96 160.954 52.98 161.52 54C162.087 55.02 162.767 55.87 163.56 56.55L166.62 57.57L169.34 56.55L170.02 48.22L169.17 41.42C169.737 39.9467 170.077 38.7 170.19 37.68C170.417 36.5467 170.474 35.4133 170.36 34.28C170.36 33.1467 170.304 32.0133 170.19 30.88C170.077 29.6333 170.02 28.2167 170.02 26.63C171.607 24.8167 172.514 23.06 172.74 21.36C173.08 19.66 172.287 17.9033 170.36 16.09L170.19 8.78L174.78 0.959998L178.86 0.279997ZM161.35 106.02L166.28 100.41C165.94 99.9567 166.054 99.1067 166.62 97.86C167.187 96.6133 167.357 95.1967 167.13 93.61C167.017 92.8167 166.96 91.06 166.96 88.34C167.074 85.62 167.187 82.7867 167.3 79.84C167.414 76.8933 167.527 74.2867 167.64 72.02C167.754 69.64 166.677 67.26 164.41 64.88L153.87 60.46L144.01 63.18L139.42 68.28C138.287 70.0933 137.38 71.7367 136.7 73.21C136.134 74.6833 135.737 76.2133 135.51 77.8C135.284 79.2733 135.227 80.8033 135.34 82.39C135.454 83.9767 135.68 85.7333 136.02 87.66C135.794 89.9267 136.134 91.74 137.04 93.1C137.947 94.46 139.307 95.5933 141.12 96.5L147.24 103.13L152.34 105.51C153.134 105.85 153.757 106.19 154.21 106.53C154.777 106.757 155.287 106.927 155.74 107.04C156.307 107.04 156.987 106.983 157.78 106.87C158.687 106.757 159.877 106.473 161.35 106.02ZM294.027 41.93L307.117 44.48L304.397 51.11V51.62C304.511 52.64 303.887 56.04 302.527 61.82C302.414 62.16 301.904 62.67 300.997 63.35C300.204 64.03 299.241 64.8233 298.107 65.73C297.087 66.6367 296.067 67.6 295.047 68.62C294.027 69.5267 293.347 70.4333 293.007 71.34L268.357 109.08L263.257 114.18C262.917 114.293 262.577 114.463 262.237 114.69C262.011 114.803 261.784 114.86 261.557 114.86L263.087 117.07L255.097 129.14L244.727 142.74L242.177 146.31L222.117 145.29L219.057 136.62L224.837 135.09L228.917 130.84L231.977 128.63V124.38C232.431 124.153 232.827 123.87 233.167 123.53C233.621 123.303 234.074 123.02 234.527 122.68C235.207 122.113 235.944 121.433 236.737 120.64C237.531 119.847 238.267 118.883 238.947 117.75C241.441 113.33 241.497 111.12 239.117 111.12C240.024 110.44 240.647 109.93 240.987 109.59C242.121 108.457 242.857 106.983 243.197 105.17C243.651 101.657 243.424 99.39 242.517 98.37C241.951 98.2567 240.704 97.0667 238.777 94.8C237.757 93.6667 236.907 92.7033 236.227 91.91C235.547 91.1167 234.981 90.6067 234.527 90.38C233.847 88.4533 232.827 86.3 231.467 83.92C230.221 81.54 228.804 79.16 227.217 76.78C225.744 74.2867 224.214 71.85 222.627 69.47C221.041 67.09 219.567 64.88 218.207 62.84C214.127 56.72 210.557 52.5833 207.497 50.43L206.307 45.84C207.667 44.3667 209.367 43.5167 211.407 43.29C213.674 43.0633 215.261 42.27 216.167 40.91L225.857 37.85C227.897 38.9833 229.767 40.2867 231.467 41.76C233.847 43.9133 236.284 45.3867 238.777 46.18C238.777 47.6533 239.231 48.9567 240.137 50.09C241.044 51.2233 242.064 52.3 243.197 53.32C244.331 54.2267 245.407 55.0767 246.427 55.87C247.561 56.6633 248.354 57.4567 248.807 58.25C248.807 58.3633 248.864 58.76 248.977 59.44C249.204 60.0067 249.317 60.63 249.317 61.31C249.431 61.99 249.431 62.6133 249.317 63.18C249.317 63.6333 249.147 63.86 248.807 63.86C248.241 63.86 248.297 64.1433 248.977 64.71C249.657 65.2767 250.961 66.0133 252.887 66.92C252.887 67.26 253.114 67.8833 253.567 68.79C254.134 69.6967 254.814 70.7167 255.607 71.85C256.401 72.9833 257.194 74.1733 257.987 75.42C258.781 76.5533 259.461 77.63 260.027 78.65C261.274 81.03 262.124 83.2967 262.577 85.45C263.031 87.49 263.427 88.6233 263.767 88.85C263.994 88.85 264.447 88.7367 265.127 88.51C265.807 88.17 266.544 87.83 267.337 87.49C268.131 87.0367 268.811 86.5267 269.377 85.96C269.944 85.28 270.227 84.6 270.227 83.92C270.227 83.24 270.001 82.6733 269.547 82.22L268.357 80.69C268.017 80.1233 267.734 79.6133 267.507 79.16C267.281 78.7067 267.281 78.2533 267.507 77.8C268.754 76.78 269.661 75.93 270.227 75.25C270.794 74.4567 271.531 73.4367 272.437 72.19C272.664 71.6233 273.117 71 273.797 70.32C274.591 69.5267 275.384 68.79 276.177 68.11C277.084 67.43 277.877 66.8633 278.557 66.41C279.237 65.8433 279.577 65.5033 279.577 65.39C280.484 63.5767 281.221 61.82 281.787 60.12C282.354 58.3067 283.091 55.7567 283.997 52.47C284.111 51.9033 284.394 51.3367 284.847 50.77C285.414 50.2033 285.981 49.6933 286.547 49.24C287.227 48.6733 287.794 48.22 288.247 47.88C288.814 47.4267 289.154 47.03 289.267 46.69C289.381 46.4633 289.437 46.35 289.437 46.35C289.437 46.2367 289.494 46.0667 289.607 45.84L294.027 41.93ZM317.471 52.13L324.781 40.4C325.235 40.4 325.688 40.4 326.141 40.4C326.595 40.2867 327.105 40.1733 327.671 40.06C328.578 39.9467 329.768 39.7767 331.241 39.55C332.715 39.3233 334.415 39.0967 336.341 38.87C344.048 37.9633 346.881 36.0933 344.841 33.26L369.151 29.69H375.441L376.631 31.05L377.311 36.66L374.421 38.87L365.921 39.04L354.871 44.48L342.631 48.39L340.591 52.98L344.501 62.5L349.261 63.18L351.471 68.11L355.551 67.77L357.931 70.66C358.951 70.32 359.971 70.0933 360.991 69.98C362.011 69.7533 362.918 69.7533 363.711 69.98C364.278 70.0933 364.901 70.2067 365.581 70.32C366.261 70.32 367.055 70.4333 367.961 70.66C369.095 71 369.888 71.3967 370.341 71.85C370.795 72.19 371.191 72.53 371.531 72.87C371.871 73.0967 372.268 73.3233 372.721 73.55C373.175 73.7767 373.968 73.89 375.101 73.89C375.441 74.57 376.065 75.25 376.971 75.93C377.991 76.61 379.068 77.29 380.201 77.97C381.448 78.65 382.638 79.33 383.771 80.01C385.018 80.69 385.925 81.37 386.491 82.05C386.718 82.2767 386.831 82.4467 386.831 82.56C386.945 82.6733 387.115 82.8433 387.341 83.07L388.361 91.23L384.621 101.43L383.601 108.57L375.271 112.82L361.501 118.26L353.171 117.07C350.225 116.617 347.618 116.617 345.351 117.07C343.085 117.523 340.988 117.75 339.061 117.75H320.361L318.321 112.65L319.681 107.72L344.331 105.17L352.491 104.15L362.691 93.27L361.161 88.34L353.681 86.98L340.591 83.41L338.381 84.6L331.241 81.37L326.651 78.31L321.381 66.75L317.471 59.1V52.13ZM406.788 52.13L414.098 40.4C414.551 40.4 415.004 40.4 415.458 40.4C415.911 40.2867 416.421 40.1733 416.988 40.06C417.894 39.9467 419.084 39.7767 420.558 39.55C422.031 39.3233 423.731 39.0967 425.658 38.87C433.364 37.9633 436.198 36.0933 434.158 33.26L458.468 29.69H464.758L465.948 31.05L466.628 36.66L463.738 38.87L455.238 39.04L444.188 44.48L431.948 48.39L429.908 52.98L433.818 62.5L438.578 63.18L440.788 68.11L444.868 67.77L447.248 70.66C448.268 70.32 449.288 70.0933 450.308 69.98C451.328 69.7533 452.234 69.7533 453.028 69.98C453.594 70.0933 454.218 70.2067 454.898 70.32C455.578 70.32 456.371 70.4333 457.278 70.66C458.411 71 459.204 71.3967 459.658 71.85C460.111 72.19 460.508 72.53 460.848 72.87C461.188 73.0967 461.584 73.3233 462.038 73.55C462.491 73.7767 463.284 73.89 464.418 73.89C464.758 74.57 465.381 75.25 466.288 75.93C467.308 76.61 468.384 77.29 469.518 77.97C470.764 78.65 471.954 79.33 473.088 80.01C474.334 80.69 475.241 81.37 475.808 82.05C476.034 82.2767 476.148 82.4467 476.148 82.56C476.261 82.6733 476.431 82.8433 476.658 83.07L477.678 91.23L473.938 101.43L472.918 108.57L464.588 112.82L450.818 118.26L442.488 117.07C439.541 116.617 436.934 116.617 434.668 117.07C432.401 117.523 430.304 117.75 428.378 117.75H409.678L407.638 112.65L408.998 107.72L433.648 105.17L441.808 104.15L452.008 93.27L450.478 88.34L442.998 86.98L429.908 83.41L427.698 84.6L420.558 81.37L415.968 78.31L410.698 66.75L406.788 59.1V52.13ZM565.804 77.8C563.311 77.46 561.101 77.9133 559.174 79.16C558.494 79.5 557.814 79.84 557.134 80.18C556.454 80.4067 555.774 80.6333 555.094 80.86C554.754 80.9733 554.414 81.0867 554.074 81.2C553.734 81.3133 553.451 81.4267 553.224 81.54L529.594 88.68C523.021 87.2067 520.698 88.2833 522.624 91.91C522.964 92.7033 523.418 93.8933 523.984 95.48C524.551 97.0667 525.004 98.2 525.344 98.88C526.818 99.4467 528.348 100.353 529.934 101.6C531.521 102.733 532.994 103.413 534.354 103.64L537.414 103.3C538.208 103.3 539.284 103.243 540.644 103.13C542.118 103.017 543.534 102.847 544.894 102.62C546.368 102.28 547.671 101.883 548.804 101.43C550.051 100.977 550.901 100.41 551.354 99.73C551.694 99.1633 552.204 98.7667 552.884 98.54C553.564 98.2 554.244 97.9167 554.924 97.69C555.378 97.5767 555.774 97.52 556.114 97.52C556.568 97.4067 557.078 97.2933 557.644 97.18L559.514 103.81L557.474 107.72C557.361 107.947 556.964 108.23 556.284 108.57C555.718 108.797 555.038 109.137 554.244 109.59C553.451 110.043 552.658 110.497 551.864 110.95C551.184 111.29 550.674 111.63 550.334 111.97C550.108 112.197 549.484 112.31 548.464 112.31C547.558 112.31 546.481 112.31 545.234 112.31C544.101 112.31 542.911 112.367 541.664 112.48C540.418 112.593 539.454 112.82 538.774 113.16C537.188 113.953 535.941 114.463 535.034 114.69C534.241 114.917 533.561 115.087 532.994 115.2C532.428 115.427 532.031 115.37 531.804 115.03C531.578 114.917 531.181 114.86 530.614 114.86C530.274 114.86 529.821 114.86 529.254 114.86C528.688 114.86 528.121 114.803 527.554 114.69C526.081 114.577 524.891 114.52 523.984 114.52C523.078 114.407 522.511 114.35 522.284 114.35L505.964 106.36C505.624 102.96 504.038 101.26 501.204 101.26C500.638 101.26 499.958 100.807 499.164 99.9C498.371 98.88 497.691 97.8033 497.124 96.67C496.671 96.1033 496.274 95.48 495.934 94.8C495.594 94.0067 495.254 93.1567 494.914 92.25L493.384 72.87L494.914 61.48C495.028 61.0267 495.368 60.46 495.934 59.78C496.614 58.6467 497.464 56.9467 498.484 54.68C498.938 53.66 499.844 52.6967 501.204 51.79C502.564 50.8833 503.981 50.09 505.454 49.41C507.041 48.6167 508.514 47.9367 509.874 47.37C511.348 46.69 512.424 46.1233 513.104 45.67C514.464 45.8967 516.448 44.4233 519.054 41.25C519.734 40.4567 520.584 39.8333 521.604 39.38C522.624 38.8133 523.644 38.36 524.664 38.02C525.231 37.7933 525.854 37.6233 526.534 37.51C527.214 37.3967 527.838 37.2833 528.404 37.17L548.294 39.72C549.428 39.9467 550.618 40.2867 551.864 40.74C552.771 41.1933 553.678 41.76 554.584 42.44C555.491 43.12 556.228 43.9133 556.794 44.82C557.588 46.7467 558.721 48.3333 560.194 49.58C561.668 50.7133 562.858 51.5067 563.764 51.96L570.054 63.18L568.694 74.23L565.804 77.8ZM540.644 72.02L542.004 71C542.344 70.7733 542.684 70.5467 543.024 70.32C543.364 69.98 543.648 69.7533 543.874 69.64C544.668 69.4133 545.574 68.96 546.594 68.28C547.614 67.6 548.011 66.75 547.784 65.73C547.784 63.8033 546.764 61.65 544.724 59.27C542.684 56.89 540.021 55.19 536.734 54.17C535.148 53.6033 533.618 53.32 532.144 53.32C530.671 53.32 529.254 53.4333 527.894 53.66C526.648 53.7733 525.458 53.9433 524.324 54.17C523.304 54.3967 522.454 54.51 521.774 54.51C519.168 53.9433 517.694 55.1333 517.354 58.08C515.654 60.6867 514.804 63.5767 514.804 66.75C514.918 69.81 515.258 72.7567 515.824 75.59C515.824 77.1767 516.108 78.48 516.674 79.5C517.354 80.52 518.148 81.1433 519.054 81.37C519.961 81.5967 520.868 81.4267 521.774 80.86C522.794 80.18 523.644 78.99 524.324 77.29L540.644 72.02ZM665.736 41.93L678.826 44.48L676.106 51.11V51.62C676.22 52.64 675.596 56.04 674.236 61.82C674.123 62.16 673.613 62.67 672.706 63.35C671.913 64.03 670.95 64.8233 669.816 65.73C668.796 66.6367 667.776 67.6 666.756 68.62C665.736 69.5267 665.056 70.4333 664.716 71.34L640.066 109.08L634.966 114.18C634.626 114.293 634.286 114.463 633.946 114.69C633.72 114.803 633.493 114.86 633.266 114.86L634.796 117.07L626.806 129.14L616.436 142.74L613.886 146.31L593.826 145.29L590.766 136.62L596.546 135.09L600.626 130.84L603.686 128.63V124.38C604.14 124.153 604.536 123.87 604.876 123.53C605.33 123.303 605.783 123.02 606.236 122.68C606.916 122.113 607.653 121.433 608.446 120.64C609.24 119.847 609.976 118.883 610.656 117.75C613.15 113.33 613.206 111.12 610.826 111.12C611.733 110.44 612.356 109.93 612.696 109.59C613.83 108.457 614.566 106.983 614.906 105.17C615.36 101.657 615.133 99.39 614.226 98.37C613.66 98.2567 612.413 97.0667 610.486 94.8C609.466 93.6667 608.616 92.7033 607.936 91.91C607.256 91.1167 606.69 90.6067 606.236 90.38C605.556 88.4533 604.536 86.3 603.176 83.92C601.93 81.54 600.513 79.16 598.926 76.78C597.453 74.2867 595.923 71.85 594.336 69.47C592.75 67.09 591.276 64.88 589.916 62.84C585.836 56.72 582.266 52.5833 579.206 50.43L578.016 45.84C579.376 44.3667 581.076 43.5167 583.116 43.29C585.383 43.0633 586.97 42.27 587.876 40.91L597.566 37.85C599.606 38.9833 601.476 40.2867 603.176 41.76C605.556 43.9133 607.993 45.3867 610.486 46.18C610.486 47.6533 610.94 48.9567 611.846 50.09C612.753 51.2233 613.773 52.3 614.906 53.32C616.04 54.2267 617.116 55.0767 618.136 55.87C619.27 56.6633 620.063 57.4567 620.516 58.25C620.516 58.3633 620.573 58.76 620.686 59.44C620.913 60.0067 621.026 60.63 621.026 61.31C621.14 61.99 621.14 62.6133 621.026 63.18C621.026 63.6333 620.856 63.86 620.516 63.86C619.95 63.86 620.006 64.1433 620.686 64.71C621.366 65.2767 622.67 66.0133 624.596 66.92C624.596 67.26 624.823 67.8833 625.276 68.79C625.843 69.6967 626.523 70.7167 627.316 71.85C628.11 72.9833 628.903 74.1733 629.696 75.42C630.49 76.5533 631.17 77.63 631.736 78.65C632.983 81.03 633.833 83.2967 634.286 85.45C634.74 87.49 635.136 88.6233 635.476 88.85C635.703 88.85 636.156 88.7367 636.836 88.51C637.516 88.17 638.253 87.83 639.046 87.49C639.84 87.0367 640.52 86.5267 641.086 85.96C641.653 85.28 641.936 84.6 641.936 83.92C641.936 83.24 641.71 82.6733 641.256 82.22L640.066 80.69C639.726 80.1233 639.443 79.6133 639.216 79.16C638.99 78.7067 638.99 78.2533 639.216 77.8C640.463 76.78 641.37 75.93 641.936 75.25C642.503 74.4567 643.24 73.4367 644.146 72.19C644.373 71.6233 644.826 71 645.506 70.32C646.3 69.5267 647.093 68.79 647.886 68.11C648.793 67.43 649.586 66.8633 650.266 66.41C650.946 65.8433 651.286 65.5033 651.286 65.39C652.193 63.5767 652.93 61.82 653.496 60.12C654.063 58.3067 654.8 55.7567 655.706 52.47C655.82 51.9033 656.103 51.3367 656.556 50.77C657.123 50.2033 657.69 49.6933 658.256 49.24C658.936 48.6733 659.503 48.22 659.956 47.88C660.523 47.4267 660.863 47.03 660.976 46.69C661.09 46.4633 661.146 46.35 661.146 46.35C661.146 46.2367 661.203 46.0667 661.316 45.84L665.736 41.93ZM64.84 208.44C65.16 210.2 65.28 211.96 65.2 213.72C65.2 215.4 65.16 217.04 65.08 218.64C65.08 220.24 65.12 221.8 65.2 223.32C65.36 224.76 65.76 226.12 66.4 227.4C66.16 227.8 65.68 228.6 64.96 229.8C64.32 231 63.84 232.24 63.52 233.52C63.2 234.72 63.24 235.64 63.64 236.28C64.04 236.92 64.2 237.32 64.12 237.48C64.04 237.72 63.96 238 63.88 238.32C63.8 238.56 63.68 238.88 63.52 239.28C63.28 239.92 62.88 240.72 62.32 241.68C61.84 242.64 61.16 243.76 60.28 245.04C59.4 246.32 58.8 247.44 58.48 248.4C58.24 249.28 58.08 250.08 58 250.8C58 251.52 58 252.16 58 252.72C58 253.28 57.84 253.8 57.52 254.28C57.36 254.44 57 254.56 56.44 254.64C55.88 254.64 55.2 254.72 54.4 254.88C53.6 255.04 52.72 255.32 51.76 255.72C50.88 256.04 50.04 256.56 49.24 257.28C47.72 257.6 46.52 258.04 45.64 258.6C44.84 259.08 43.6 259.4 41.92 259.56C40.08 259.96 38.84 260.48 38.2 261.12C37.56 261.68 37.12 261.96 36.88 261.96C34.56 261.96 32.76 262.04 31.48 262.2C30.2 262.28 29.36 262.4 28.96 262.56L27.76 262.8C27.52 262.88 27 262.92 26.2 262.92L9.4 257.76L0.88 248.16C0.88 245.68 0.84 243.6 0.76 241.92C0.76 240.16 0.72 238.64 0.64 237.36C0.64 236 0.64 234.72 0.64 233.52C0.64 232.32 0.68 231 0.76 229.56C1.08 229.32 1.6 228.6 2.32 227.4C3.12 226.12 3.92 224.72 4.72 223.2C5.52 221.6 6.28 219.96 7 218.28C7.72 216.6 8.28 215.2 8.68 214.08C9 212.88 9.28 211.96 9.52 211.32C9.76 210.6 9.96 210 10.12 209.52C10.36 209.04 10.56 208.56 10.72 208.08C10.88 207.6 11.04 207 11.2 206.28L14.32 203.16C14.32 203.08 14.76 202.52 15.64 201.48C16.6 200.36 17.68 199.16 18.88 197.88C20.16 196.52 21.48 195.28 22.84 194.16C24.2 193.04 25.32 192.44 26.2 192.36L32.08 191.76L34.48 192C34.8 192.08 35.08 192.12 35.32 192.12C35.64 192.12 35.92 192.12 36.16 192.12H37L41.08 195.84C41.16 196.72 41.36 197.44 41.68 198C42.08 198.56 42.88 199 44.08 199.32C45.36 199.64 46.04 199.8 46.12 199.8C46.2 199.88 46.2 199.96 46.12 200.04C47.64 200.04 49.24 199.64 50.92 198.84C52.6 197.96 54.24 197.52 55.84 197.52C56.24 197.52 56.68 197.72 57.16 198.12C57.64 198.52 58.12 199 58.6 199.56L60.04 201.12C60.52 201.68 60.96 202 61.36 202.08C61.2 203.6 61.24 204.72 61.48 205.44C61.8 206.08 62.16 206.56 62.56 206.88C63.04 207.12 63.48 207.32 63.88 207.48C64.36 207.64 64.68 207.96 64.84 208.44ZM44.68 244.92C45.16 244.6 45.56 244.4 45.88 244.32C46.2 244.16 46.48 243.92 46.72 243.6C47.04 243.28 47.32 242.76 47.56 242.04C47.88 241.24 48.24 240.04 48.64 238.44C49.12 236.84 49.52 235.52 49.84 234.48C50.16 233.36 50.4 232.44 50.56 231.72C50.72 230.92 50.84 230.2 50.92 229.56C51 228.92 51.04 228.24 51.04 227.52C51.04 226.16 51.12 224.64 51.28 222.96C51.44 221.2 51.28 219.36 50.8 217.44C50.4 216.08 50.12 214.56 49.96 212.88C49.88 211.2 49.76 209.76 49.6 208.56C48.8 208.08 48.32 207.32 48.16 206.28C48 205.24 47.48 204.24 46.6 203.28C46.12 202.88 45.6 202.64 45.04 202.56C44.56 202.48 44.08 202.48 43.6 202.56C43.2 202.64 42.8 202.76 42.4 202.92C42.08 203.08 41.84 203.16 41.68 203.16C41.44 203.16 40.96 203.12 40.24 203.04C39.52 202.88 38.68 202.84 37.72 202.92C36.84 202.92 35.92 203.08 34.96 203.4C34.08 203.64 33.36 204.16 32.8 204.96C30.32 207.76 28.88 209.52 28.48 210.24C27.36 212.32 26.36 214.32 25.48 216.24C24.68 218.16 23.96 219.6 23.32 220.56C23 221.36 22.32 222.56 21.28 224.16C20.32 225.76 19.84 228.04 19.84 231C19.92 231.24 19.8 231.84 19.48 232.8C19.16 233.68 18.84 234.76 18.52 236.04C18.28 237.32 18.08 238.64 17.92 240C17.76 241.28 17.88 242.44 18.28 243.48C18.6 244.28 19.28 245.56 20.32 247.32C21.36 249 23.16 250.8 25.72 252.72C27.32 253.76 28.4 254.84 28.96 255.96C29.52 257 30 257.52 30.4 257.52C30.8 257.52 31.44 257.52 32.32 257.52C33.2 257.44 33.84 257.6 34.24 258L44.68 244.92ZM127.784 217.32C127.064 217.32 126.064 217.32 124.784 217.32C123.504 217.32 122.104 217.32 120.584 217.32C119.144 217.24 117.704 217.2 116.264 217.2C114.824 217.2 113.584 217.2 112.544 217.2L113.024 222.12C113.024 222.36 112.904 222.68 112.664 223.08C112.424 223.48 112.144 223.92 111.824 224.4C111.504 224.88 111.184 225.36 110.864 225.84C110.544 226.32 110.344 226.68 110.264 226.92C110.104 227.24 110.144 227.96 110.384 229.08C110.704 230.2 110.664 231.2 110.264 232.08C110.424 232.48 110.464 233 110.384 233.64C110.384 234.28 110.304 234.92 110.144 235.56C110.064 236.2 109.944 236.8 109.784 237.36C109.704 237.92 109.664 238.32 109.664 238.56C109.664 238.8 109.664 239 109.664 239.16C109.744 239.24 109.784 239.36 109.784 239.52C109.864 239.68 109.944 239.96 110.024 240.36C110.184 240.68 110.344 241.24 110.504 242.04C110.584 242.36 110.584 242.88 110.504 243.6C110.504 244.32 110.424 245.64 110.264 247.56C110.184 248.36 110.104 248.88 110.024 249.12C109.944 249.28 109.864 249.44 109.784 249.6C109.704 249.76 109.624 250.04 109.544 250.44C109.544 250.76 109.544 251.48 109.544 252.6L107.984 258.24L108.344 259.56L106.304 266.76C105.184 266.92 104.104 267.04 103.064 267.12C102.024 267.28 100.984 267.44 99.9438 267.6C98.2638 267.84 96.6238 268.04 95.0238 268.2C93.5038 268.36 92.4238 268.44 91.7838 268.44C91.1438 268.44 90.8638 267.72 90.9438 266.28C91.0238 264.84 91.2638 263.24 91.6638 261.48C92.0638 259.24 92.6638 256.92 93.4638 254.52C93.3838 254.2 93.3438 254 93.3438 253.92C93.4238 253.76 93.4638 253.56 93.4638 253.32C93.5438 253.08 93.6238 252.68 93.7038 252.12C93.8638 251.56 93.9838 250.64 94.0638 249.36C94.3038 246.72 94.4638 244.8 94.5438 243.6C94.7038 242.32 94.7838 241.36 94.7838 240.72C94.7838 240.48 94.7438 240.08 94.6638 239.52C94.6638 238.96 94.5838 238.52 94.4238 238.2L94.9038 227.88C95.7038 227.4 95.9838 226.88 95.7438 226.32C95.5038 225.76 95.5038 225.32 95.7438 225C95.9838 224.2 96.1838 223.36 96.3438 222.48C96.5838 221.6 96.8638 219.96 97.1838 217.56L94.6638 217.08C94.1838 216.92 93.7038 216.88 93.2238 216.96C92.1838 217.04 90.5438 217.72 88.3038 219L84.2238 216C83.5038 215.36 83.3038 214.56 83.6238 213.6C84.0238 212.56 84.6638 211.6 85.5438 210.72L94.1838 209.52L97.5438 209.28C98.1038 209.92 98.5838 210.28 98.9838 210.36C99.3838 210.36 99.7038 210.24 99.9438 210C100.264 209.76 100.504 209.4 100.664 208.92C100.824 208.44 100.944 208 101.024 207.6C101.024 207.44 101.024 207.32 101.024 207.24C101.104 207.08 101.144 206.96 101.144 206.88V206.64C101.144 206.56 101.104 206.2 101.024 205.56C100.944 204.92 100.584 204.4 99.9438 204C99.7038 203.84 99.3038 203.52 98.7438 203.04C98.1838 202.56 97.9038 202.28 97.9038 202.2C98.1438 201.56 98.2638 200.84 98.2638 200.04C98.3438 199.24 98.3838 198.4 98.3838 197.52L100.064 194.28C100.224 194.04 100.464 193.68 100.784 193.2C101.104 192.72 101.584 192.16 102.224 191.52L104.144 189.72L111.584 185.52L125.024 185.88L131.264 190.68L131.144 192.6L128.264 195.24L126.824 195.12L124.184 191.88C123.144 191.16 122.104 190.8 121.064 190.8C120.024 190.72 119.024 190.92 118.064 191.4C117.184 191.88 116.344 192.56 115.544 193.44C114.744 194.32 114.024 195.32 113.384 196.44V196.92C113.384 197.64 113.424 198.12 113.504 198.36C113.584 199.56 113.704 200.24 113.864 200.4C113.864 201.36 113.624 202.44 113.144 203.64C112.744 204.84 112.584 206.64 112.664 209.04H122.384C123.504 209.52 125.824 209.68 129.344 209.52C129.984 209.52 130.504 209.52 130.904 209.52C131.384 209.44 131.824 209.4 132.224 209.4L133.184 211.8L131.384 215.4L127.784 217.32ZM237.619 260.52L233.419 261.24C232.459 261.4 231.459 261.4 230.419 261.24C229.379 261.08 228.299 261 227.179 261C226.939 261 226.579 261 226.099 261C225.619 261 225.059 261 224.419 261C223.859 261 223.299 261.04 222.739 261.12C222.179 261.12 221.699 261.12 221.299 261.12L218.659 259.32C218.899 257.72 218.819 256.56 218.419 255.84C218.099 255.12 217.859 254.44 217.699 253.8C217.539 253.32 217.219 252.56 216.739 251.52C216.259 250.48 215.819 249.28 215.419 247.92C215.419 247.68 215.019 246.96 214.219 245.76C213.419 244.56 212.779 243.48 212.299 242.52L210.859 243.12C210.459 243.12 210.019 243.24 209.539 243.48C209.059 243.72 207.859 243.84 205.939 243.84C205.699 243.36 205.299 243.04 204.739 242.88C204.179 242.64 203.539 242.6 202.819 242.76C202.179 242.84 201.499 243.08 200.779 243.48C200.139 243.88 199.579 244.36 199.099 244.92L194.179 245.64C193.859 244.92 193.499 244.36 193.099 243.96C192.779 243.48 192.419 243.04 192.019 242.64C191.699 242.24 191.419 241.8 191.179 241.32C190.939 240.84 190.819 240.2 190.819 239.4C192.419 239 193.339 238.48 193.579 237.84C193.899 237.2 194.139 236.92 194.299 237C194.779 237.24 195.219 237.36 195.619 237.36C195.059 237.36 194.899 237.28 195.139 237.12C195.379 236.96 196.459 236.56 198.379 235.92L207.139 234.84L208.939 236.16C210.219 236.48 211.179 236.56 211.819 236.4C212.459 236.24 212.899 235.96 213.139 235.56C213.379 235.08 213.499 234.56 213.499 234C213.579 233.44 213.659 232.96 213.739 232.56C213.899 231.68 213.699 230.96 213.139 230.4C212.659 229.76 211.979 229.2 211.099 228.72C210.939 227.84 210.619 226.84 210.139 225.72C209.739 224.52 209.219 223.12 208.579 221.52C208.019 220 207.499 218.4 207.019 216.72C206.619 214.96 206.259 213.36 205.939 211.92C205.619 210.48 205.379 209.28 205.219 208.32C205.059 207.36 204.939 206.8 204.859 206.64C203.739 205.92 202.819 205.88 202.099 206.52C201.379 207.08 200.779 207.92 200.299 209.04C199.899 210.16 199.619 211.36 199.459 212.64C199.379 213.84 199.379 214.68 199.459 215.16C199.379 215.32 199.179 215.6 198.859 216C198.539 216.32 198.179 216.68 197.779 217.08C197.379 217.48 197.019 217.88 196.699 218.28C196.379 218.6 196.179 218.84 196.099 219C195.779 219.56 195.699 220.16 195.859 220.8C196.019 221.44 195.899 222 195.499 222.48C193.899 225.36 192.019 227.64 189.859 229.32C189.299 229.8 188.859 230.48 188.539 231.36C188.219 232.24 188.019 233.16 187.939 234.12C187.859 235.08 187.939 236.04 188.179 237C188.419 237.88 188.859 238.6 189.499 239.16C188.699 239.64 188.059 240.16 187.579 240.72C187.179 241.2 186.819 241.76 186.499 242.4C186.259 242.96 186.019 243.6 185.779 244.32C185.539 244.96 185.259 245.68 184.939 246.48C183.579 250.08 182.899 251.96 182.899 252.12L181.219 255.6L179.659 261.96C179.739 263.16 179.299 263.88 178.339 264.12C177.459 264.36 176.019 264.48 174.019 264.48C172.099 264.96 170.419 265.2 168.979 265.2C167.539 265.12 167.059 264.36 167.539 262.92C169.619 257.96 171.139 254.28 172.099 251.88C173.139 249.4 173.659 247.52 173.659 246.24C173.659 245.84 173.819 245.52 174.139 245.28C174.539 244.96 174.859 244.72 175.099 244.56C175.179 244.4 175.459 243.56 175.939 242.04C176.499 240.52 177.099 238.84 177.739 237C178.379 235.08 178.979 233.28 179.539 231.6C180.179 229.84 180.659 228.64 180.979 228C181.699 226.48 182.539 224.76 183.499 222.84C184.539 220.92 185.739 219.08 187.099 217.32C187.819 216.36 188.419 215.04 188.899 213.36C189.459 211.68 189.979 209.84 190.459 207.84C190.939 205.84 191.459 203.8 192.019 201.72C192.579 199.64 193.299 197.72 194.179 195.96C194.659 195.8 196.059 194.04 198.379 190.68C198.539 190.52 198.659 190.36 198.739 190.2C198.899 189.96 199.059 189.76 199.219 189.6L214.579 188.64C214.899 189.04 215.259 189.52 215.659 190.08C216.059 190.64 216.499 191.24 216.979 191.88C218.499 193.8 219.419 195.32 219.739 196.44C220.059 197.56 220.259 198.32 220.339 198.72C220.179 198.96 221.019 201.68 222.859 206.88C223.339 208.16 223.739 209.6 224.059 211.2C224.379 212.8 224.619 214.32 224.779 215.76C224.939 217.12 225.019 218.32 225.019 219.36C225.019 220.32 224.979 220.84 224.899 220.92C224.739 221 226.019 222 228.739 223.92C229.379 224.4 229.739 224.84 229.819 225.24C229.979 225.64 229.979 226 229.819 226.32C229.739 226.64 229.579 226.92 229.339 227.16C229.099 227.4 228.979 227.56 228.979 227.64L232.219 231.96C232.219 231.96 233.139 235.44 234.979 242.4C236.019 245.76 236.779 248.64 237.259 251.04C237.739 253.36 237.979 255.16 237.979 256.44C237.979 256.6 238.019 256.72 238.099 256.8C238.099 256.72 238.179 256.92 238.339 257.4L237.619 260.52ZM326.276 187.44L328.316 188.88L329.276 191.76C329.036 191.84 328.756 191.96 328.436 192.12C327.876 192.44 327.196 192.88 326.396 193.44C325.596 193.92 324.796 194.44 323.996 195C323.276 195.48 322.636 195.92 322.076 196.32C321.596 196.64 321.316 196.8 321.236 196.8L319.796 197.52C319.156 197.92 318.436 198.28 317.636 198.6L315.356 199.8C314.956 199.96 314.596 200.12 314.276 200.28C314.036 200.44 313.756 200.6 313.436 200.76C313.196 201.4 312.796 202.12 312.236 202.92C311.676 203.72 311.076 204.52 310.436 205.32C309.796 206.12 309.116 206.84 308.396 207.48C307.756 208.12 307.196 208.64 306.716 209.04C306.796 209.28 306.796 209.56 306.716 209.88C306.716 210.2 306.596 210.52 306.356 210.84C306.116 211.24 305.876 212.12 305.636 213.48C305.396 214.76 305.156 216.4 304.916 218.4C304.676 219.04 304.156 219.56 303.356 219.96C302.636 220.28 302.156 220.76 301.916 221.4C301.756 222.12 301.556 222.92 301.316 223.8C301.156 224.68 301.396 225.2 302.036 225.36C303.076 225.6 303.676 225.8 303.836 225.96C303.676 227.08 303.516 228.04 303.356 228.84C303.276 229.56 303.156 230.28 302.996 231C302.916 231.72 302.836 232.48 302.756 233.28C302.676 234 302.596 234.92 302.516 236.04C302.356 238.36 302.236 240.2 302.156 241.56C302.156 242.84 302.196 243.64 302.276 243.96L305.156 253.56C305.876 253.72 306.836 253.92 308.036 254.16C309.316 254.32 310.836 254.6 312.596 255C316.036 255.64 317.836 255.76 317.996 255.36C317.916 254.8 319.836 254.04 323.756 253.08C327.756 252.2 329.756 251.48 329.756 250.92L332.276 251.16L330.716 257.64C330.556 257.72 330.356 257.76 330.116 257.76C329.956 257.76 329.796 257.8 329.636 257.88C329.236 257.96 328.796 258.04 328.316 258.12C327.916 258.2 327.396 258.32 326.756 258.48C325.476 258.72 324.476 258.92 323.756 259.08C323.036 259.16 322.596 259.24 322.436 259.32C320.516 259.56 318.996 260.48 317.876 262.08C316.516 263.68 315.796 264.28 315.716 263.88C314.916 264.2 313.996 264.08 312.956 263.52C312.156 262.8 310.516 262.72 308.036 263.28L296.036 261.84L284.516 253.92C285.796 252.96 285.236 249.56 282.836 243.72C282.196 242.2 281.636 240.88 281.156 239.76C280.756 238.64 280.396 237.72 280.076 237C279.916 236.6 279.756 236.24 279.596 235.92C279.516 235.52 279.396 235.16 279.236 234.84C279.156 233.24 279.356 231.44 279.836 229.44C280.396 227.36 280.796 225.4 281.036 223.56L283.196 222.12C284.316 221.4 285.116 220.68 285.596 219.96C286.076 219.24 285.836 218.32 284.876 217.2C285.036 216.24 285.156 215.2 285.236 214.08C285.396 212.96 285.516 211.88 285.596 210.84C285.756 209.8 285.876 208.92 285.956 208.2C286.036 207.48 286.076 207.08 286.076 207L290.756 200.28C290.916 200.12 291.436 199.92 292.316 199.68C293.196 199.44 294.356 199.12 295.796 198.72C296.516 198.56 297.036 198.32 297.356 198C297.756 197.6 298.036 197.24 298.196 196.92C298.356 196.52 298.476 196.16 298.556 195.84C298.716 195.52 298.876 195.32 299.036 195.24L315.236 190.32C316.596 190.08 318.116 189.72 319.796 189.24C321.476 188.76 322.756 188.2 323.636 187.56L326.276 187.44ZM322.316 234.84C322.396 234.76 322.436 234.68 322.436 234.6V234.48C321.876 233.6 321.356 232.88 320.876 232.32C320.396 231.76 320.076 231.32 319.916 231L324.116 226.32H327.596C327.756 226.32 328.156 226.36 328.796 226.44C329.516 226.44 330.476 226.48 331.676 226.56C333.996 226.72 335.276 226.32 335.516 225.36H349.436C350.716 225.36 352.036 225.48 353.396 225.72C354.756 225.96 355.916 226.16 356.876 226.32C356.876 226.88 356.756 227.76 356.516 228.96C356.276 230.08 356.116 231.08 356.036 231.96C355.476 232.2 354.636 232.44 353.516 232.68C352.476 232.92 351.796 233.16 351.476 233.4L346.436 233.04L345.356 235.8C346.076 236.28 346.756 236.52 347.396 236.52C348.036 236.44 348.876 236.48 349.916 236.64C349.996 237.28 349.916 238.28 349.676 239.64C349.436 240.92 349.116 242.6 348.716 244.68C348.396 246.76 348.036 249.2 347.636 252C347.316 254.8 347.116 258 347.036 261.6L335.756 263.64L335.036 260.04C335.116 259.64 335.156 258.56 335.156 256.8C335.236 254.96 335.236 252.36 335.156 249C335.076 247.32 335.036 245.76 335.036 244.32C335.036 242.88 335.036 241.56 335.036 240.36V234.72C333.196 234.88 331.356 235.08 329.516 235.32C327.756 235.56 326.516 235.8 325.796 236.04L323.876 236.16L322.316 234.84ZM376.488 189.48C376.648 188.84 376.728 188.24 376.728 187.68C376.808 187.04 376.888 186.4 376.968 185.76C376.968 185.2 376.968 184.72 376.968 184.32C377.048 183.92 377.088 183.56 377.088 183.24L377.688 181.92C377.928 181.84 378.248 181.8 378.648 181.8C379.048 181.8 379.528 181.76 380.088 181.68C381.768 181.6 382.848 181.4 383.328 181.08C383.328 181 383.528 180.84 383.928 180.6C384.168 180.36 384.368 180.2 384.528 180.12C384.608 180.12 384.888 180.16 385.368 180.24C385.848 180.32 386.488 180.48 387.288 180.72C388.648 181.04 389.608 181.2 390.168 181.2C390.888 181.2 391.288 181.16 391.367 181.08C391.448 181 391.688 181 392.088 181.08L393.168 183.12L394.248 189.24L391.728 193.44C391.648 193.52 391.568 193.6 391.488 193.68C391.488 193.76 391.408 193.84 391.248 193.92C390.848 194.16 390.368 194.52 389.808 195L389.448 195.36L385.848 195.72C385.368 195.56 384.808 195.4 384.168 195.24C383.528 195 382.768 194.72 381.888 194.4C381.008 194.08 380.248 193.8 379.608 193.56C378.968 193.24 378.408 193 377.928 192.84L377.327 192.24L376.488 189.48ZM391.367 210.12L390.888 214.44L391.367 216.24L390.648 218.16L391.008 220.92L390.408 223.2L390.768 223.92L390.288 229.32L389.808 240.72C389.808 241.28 389.728 242 389.568 242.88C389.408 243.68 389.288 244.56 389.208 245.52C389.128 246.4 389.128 247.32 389.208 248.28C389.288 249.16 389.528 249.92 389.928 250.56C389.848 251.76 389.728 253.16 389.568 254.76C389.408 256.36 389.128 258.2 388.728 260.28C388.088 261.16 387.408 261.96 386.688 262.68C386.048 263.32 384.808 263.68 382.968 263.76C381.928 263.84 380.888 263.92 379.848 264C378.888 264.08 377.968 264.2 377.088 264.36C376.608 264.44 376.128 264.52 375.648 264.6C375.168 264.68 374.648 264.8 374.088 264.96L371.088 261.12C371.168 260.72 371.288 259.64 371.448 257.88C371.688 256.04 371.888 253.88 372.048 251.4C372.208 248.92 372.288 246.28 372.288 243.48C372.368 240.68 372.288 238.08 372.048 235.68L372.768 233.4L373.848 228.12L374.208 223.92L374.928 222.48L375.048 221.4L375.768 218.16L376.368 211.56L387.168 207.36L391.367 210.12ZM454.435 210.6V216.12H451.315L446.755 219.72C442.835 220.28 439.635 221.08 437.155 222.12C434.675 223.08 433.515 224.44 433.675 226.2C433.515 226.6 433.435 227.08 433.435 227.64C433.435 228.12 433.715 228.36 434.275 228.36L431.875 240.36L430.795 241.68V255L430.075 261.72L427.675 264.12L413.995 263.16L410.995 259.08L411.835 256.92L411.355 250.32L412.795 238.2L413.995 229.32C413.995 229.08 414.035 228.88 414.115 228.72C414.115 228.56 414.115 228.36 414.115 228.12C414.195 227.88 414.235 227.68 414.235 227.52C414.635 227.2 414.875 226.48 414.955 225.36C415.115 224.24 415.155 223.52 415.075 223.2C415.075 222.64 415.035 222.12 414.955 221.64C414.955 221.16 414.795 220.12 414.475 218.52C414.395 218.04 414.115 217.48 413.635 216.84C413.235 216.12 412.795 215.48 412.315 214.92L413.875 211.2H416.155L428.515 208.92L431.515 210.36C431.275 211.72 431.235 212.88 431.395 213.84C431.635 214.72 431.955 215.4 432.355 215.88C432.835 216.36 433.355 216.68 433.915 216.84C434.475 216.92 434.955 216.84 435.355 216.6L437.515 215.4C437.915 215.24 438.035 214.8 437.875 214.08C437.795 213.36 437.835 212.44 437.995 211.32L452.875 208.68L454.435 210.6ZM487.402 245.76L487.882 254.28L487.402 258.72V261L485.122 264.24L481.162 265.2L470.842 267.12C469.962 267.28 469.242 267.16 468.682 266.76C468.202 266.28 467.962 265.12 467.962 263.28V263.04L469.882 253.92L470.242 245.76V241.2L471.682 230.88C471.602 230.48 471.522 229.72 471.442 228.6C471.362 227.48 471.242 226.08 471.082 224.4C471.002 223.52 470.962 222.72 470.962 222C470.962 221.28 470.922 220.64 470.842 220.08V217.56C470.842 217.64 471.122 217.4 471.682 216.84C472.242 216.2 472.722 215.44 473.122 214.56C473.522 213.6 473.682 212.56 473.602 211.44C473.522 210.32 472.842 209.28 471.562 208.32L473.602 187.56C474.162 187.24 474.202 186.28 473.722 184.68L476.122 182.28L477.682 182.04C478.002 182.12 478.522 182.2 479.242 182.28C479.962 182.28 480.722 182.32 481.522 182.4C482.322 182.4 483.082 182.44 483.802 182.52C484.602 182.52 485.202 182.56 485.602 182.64C486.322 182.8 487.242 182.92 488.362 183C489.482 183 490.282 183.12 490.762 183.36L493.162 184.68V186.96C493.402 187.44 493.362 188.12 493.042 189C492.802 189.8 492.722 190.76 492.802 191.88C492.802 192.44 492.762 193.08 492.682 193.8C492.602 194.52 492.522 195.2 492.442 195.84C492.442 196.48 492.402 197.04 492.322 197.52C492.242 198 492.202 198.28 492.202 198.36C492.202 198.52 492.162 198.72 492.082 198.96L491.962 199.92C491.962 200.24 491.882 200.52 491.722 200.76C491.642 201 491.562 201.08 491.482 201C491.402 201 491.202 201.24 490.882 201.72C490.642 202.2 490.362 202.8 490.042 203.52C489.802 204.16 489.602 204.84 489.442 205.56C489.282 206.28 489.242 206.84 489.322 207.24C489.402 207.64 489.482 208.28 489.562 209.16C489.642 209.96 489.722 211.08 489.802 212.52C489.802 213.24 489.802 213.88 489.802 214.44C489.882 215 489.922 215.48 489.922 215.88C489.922 216.36 489.962 216.72 490.042 216.96L489.202 224.04L489.442 227.52C488.322 229.76 487.802 231.32 487.882 232.2C488.042 233.08 488.522 233.8 489.322 234.36L487.402 245.76Z" fill="#C9F5AE"/>
</svg>
