<svg width="458" height="561" viewBox="0 0 458 561" fill="none" xmlns="http://www.w3.org/2000/svg">
<path d="M194.678 0.385053C180.843 2.653 172.905 5.37453 163.303 11.0444C156.045 15.2779 152.189 18.6798 152.492 20.5697C152.87 23.2157 155.516 22.9133 159.75 19.5114C161.866 17.8482 163.832 16.4874 163.983 16.4874C164.21 16.4874 165.571 15.7315 166.932 14.7487C171.468 11.6492 183.565 7.41568 192.41 5.82812C196.946 4.99654 221.669 5.07214 228.322 5.90371C260.831 9.91041 287.217 17.7726 301.657 27.7516C303.774 29.1879 306.495 31.0779 307.705 31.9095C312.014 34.9334 320.18 43.4004 325.699 50.5066C330.159 56.3276 342.861 76.6635 342.861 78.0243C342.861 78.1755 344.599 82.031 346.716 86.5669C348.909 91.0272 350.875 95.563 351.253 96.6214C351.555 97.6798 352.765 100.855 353.899 103.803C356.242 109.927 357.074 114.765 355.789 114.765C355.26 114.765 354.73 114.236 354.503 113.631C354.277 113.026 352.991 112.043 351.706 111.363C349.816 110.456 348.909 110.38 346.716 111.061C345.204 111.514 343.39 112.421 342.709 113.026C340.819 114.689 339.61 113.933 336.132 108.868C334.469 106.374 332.579 104.181 331.898 103.879C329.479 102.972 325.321 103.425 322.221 105.013C317.231 107.583 310.351 107.432 304.757 104.559C300.296 102.216 295.457 98.1334 292.055 93.5219C287.368 87.3985 283.134 77.3439 283.134 72.43C283.134 68.2721 282.378 66.5334 280.488 66.231C277.917 65.7018 277.161 68.0453 277.917 73.942C279.581 87.852 290.619 103.35 303.32 109.624C307.856 111.817 309.066 112.119 314.283 112.043C318.592 111.968 320.86 111.514 323.204 110.305C324.867 109.473 326.908 108.717 327.74 108.717C330.915 108.717 337.871 119.981 341.424 131.019C342.936 135.63 343.163 137.898 343.163 148.028C343.087 157.629 342.785 160.88 341.424 166.172C335.678 188.02 326.908 203.064 312.014 216.898C306.798 221.736 298.482 227.86 292.811 231.11C291.224 231.942 288.804 233.378 287.368 234.21C285.931 234.966 281.093 237.234 276.557 239.124C272.096 241.089 267.711 242.904 266.879 243.282C265.518 243.887 259.621 245.852 249.869 248.952C247.979 249.481 245.257 250.237 243.82 250.464C242.384 250.69 239.133 251.371 236.638 251.975C224.164 254.848 205.187 255.151 192.788 252.807C177.668 249.859 163.908 242.979 155.138 233.832C138.883 217.049 131.928 196.864 131.928 166.398C131.928 157.705 133.137 146.667 134.196 145.458C134.574 145.08 135.935 145.911 137.371 147.197C143.571 153.093 156.952 159.141 159.825 157.327C161.337 156.344 161.866 153.396 160.506 153.018C148.938 149.616 145.083 147.65 140.244 142.661C131.096 133.211 128.223 119.679 132.759 107.205C134.271 103.047 134.347 102.442 133.288 101.384C131.172 99.2674 129.13 101.309 127.316 107.432C125.048 114.916 125.048 123.912 127.316 131.094C128.903 136.159 128.979 137.142 128.223 145.004C127.769 149.616 127.24 153.698 127.013 154.076C126.787 154.454 125.35 154.983 123.762 155.21C120.663 155.739 116.429 157.553 114.236 159.368C110.078 162.77 106.827 172.22 107.281 179.855C107.432 182.123 107.432 182.803 107.205 181.442C107.054 180.082 106.449 179.023 105.845 179.023C104.03 179.023 103.652 176.377 103.652 162.014C103.576 148.179 103.501 147.65 102.064 147.65C99.267 147.65 98.3598 151.279 98.4354 163.148C98.4354 171.69 98.7378 175.546 100.023 180.611C103.198 193.614 109.927 205.936 118.546 214.781C126.635 223.173 137.447 230.581 142.89 231.64C144.78 231.942 146.973 233.454 150.375 236.78C155.969 242.299 165.873 248.952 172.753 251.9C175.475 253.034 178.348 254.243 179.18 254.621C186.362 257.872 206.699 260.14 221.366 259.309L227.944 258.931V262.03C227.944 265.583 226.658 268.38 224.088 270.346C222.122 271.933 220.535 272.916 203.977 282.668C196.946 286.902 176.231 297.259 168.595 300.358C146.368 309.581 121.494 317.065 99.4182 321.148C84.3732 323.945 66.7576 325.986 66.1528 324.928C65.8504 324.474 65.3968 321.979 65.17 319.409C64.2627 310.035 60.029 301.568 55.3416 299.602C52.0906 298.242 50.5786 299.376 47.9324 305.045C46.7228 307.691 45.5131 309.808 45.2863 309.808C44.9839 309.808 43.4718 308.372 41.9598 306.557C40.3721 304.743 37.6504 302.324 35.8359 301.039C32.8874 298.998 32.1314 298.846 25.7807 298.846C15.1962 298.846 7.25791 302.475 2.57051 309.354C0.302413 312.681 0 313.588 0 318.048C0.0756032 322.131 0.378016 323.567 2.04129 326.137C7.56032 334.755 19.2032 340.198 32.0558 340.274C40.3721 340.274 46.7984 338.535 54.4343 334.075C57.6853 332.185 59.9534 331.429 62.7507 331.278C71.445 330.976 99.4182 326.969 107.735 324.928C109.171 324.55 113.48 323.567 117.185 322.66C135.783 318.351 165.042 308.372 178.046 301.946C179.936 300.963 184.547 298.771 188.252 296.956C192.032 295.142 197.249 292.42 199.971 290.909C202.692 289.321 206.397 287.28 208.287 286.221C210.177 285.163 214.26 282.744 217.435 280.778C220.61 278.888 223.559 277.301 224.012 277.301C225.373 277.301 225.449 279.04 224.466 282.971C223.861 285.012 222.576 290.153 221.517 294.31C218.645 305.877 213.579 322.433 210.631 329.539C210.253 330.522 207.984 336.267 205.565 342.315C203.221 348.363 200.651 354.638 199.971 356.301C199.214 357.964 197.702 361.29 196.644 363.634C195.586 366.053 193.847 369.909 192.788 372.176C191.73 374.444 189.991 378.3 188.932 380.643C184.472 390.471 182.431 395.083 180.692 398.636C177.214 406.12 173.661 413.831 172.375 416.779C170.863 420.257 168.973 424.642 167.159 428.648C165.193 433.033 166.176 433.865 175.173 436.359C179.482 437.493 184.169 438.93 185.606 439.459C187.042 440.064 189.386 440.744 190.671 440.971C193.922 441.651 194.376 442.483 192.259 444.448C190.218 446.338 178.121 454.2 177.29 454.2C176.987 454.2 175.248 455.334 173.434 456.695C171.619 458.056 167.461 460.853 164.135 462.894C160.884 465.011 157.33 467.279 156.196 467.959C155.138 468.715 153.021 469.925 151.584 470.756C150.148 471.512 146.595 473.78 143.797 475.67C140.924 477.56 138.429 479.148 138.278 479.148C138.127 479.148 136.237 480.357 134.196 481.794C132.154 483.23 130.34 484.44 130.189 484.44C129.886 484.44 118.773 491.621 113.783 495.023C111.893 496.309 104.635 501.147 97.5281 505.834C78.0225 518.837 63.8091 528.665 58.5925 532.974C57.156 534.108 55.266 535.09 54.3587 535.09C51.7882 535.09 47.0252 529.043 41.733 519.29C38.0284 512.335 35.8359 509.387 31.2241 504.776C28.0488 501.525 24.571 498.501 23.5882 497.896C15.5743 493.587 13.3818 492.68 11.1137 492.529C8.84558 492.377 8.24075 492.755 6.87989 495.023C5.44343 497.367 5.36783 498.879 5.36783 510.521C5.36783 522.541 5.44343 523.826 7.40912 529.798C11.8697 543.482 18.5228 552.931 27.5196 558.601C30.3169 560.416 31.7534 560.794 35.6091 560.794C39.7673 560.794 40.5989 560.491 43.6987 558.148C47.4788 555.275 50.6542 551.042 52.8466 545.901C54.2831 542.575 59.8777 537.812 71.8987 529.647C75.2252 527.379 79.7614 524.204 82.0295 522.617C84.2976 521.029 88.229 518.308 90.7239 516.644C93.2188 514.906 95.5625 513.318 96.0161 512.94C97.3013 512.033 119.075 497.745 125.123 493.889C128.223 491.924 132.003 489.505 133.44 488.598C134.876 487.69 139.639 484.591 144.024 481.794C152.34 476.426 158.464 472.571 162.925 469.774C164.361 468.866 167.612 466.75 170.107 465.162C172.602 463.575 176.382 461.231 178.424 459.87C180.54 458.585 185.682 455.183 189.915 452.462C194.225 449.665 198.912 446.716 200.349 445.885C203.297 444.221 202.465 444.146 214.335 447.775C216.225 448.304 220.308 449.513 223.408 450.345C229.834 452.159 234.446 453.52 241.552 455.637C246.466 457.073 249.566 457.829 257.429 459.795C266.199 461.987 270.66 463.423 271.567 464.255C272.02 464.784 273.608 468.866 275.045 473.478C287.821 513.545 291.375 521.861 299.464 530.025C304.983 535.695 309.822 538.265 317.458 539.551C323.355 540.609 333.108 539.626 340.063 537.283C342.407 536.527 344.751 535.846 345.204 535.846C347.17 535.846 363.576 527.304 369.775 523.07C383.384 513.847 399.714 498.879 411.281 485.196C413.172 482.928 415.137 481.038 415.666 481.038C416.196 481.038 416.649 482.02 416.801 483.306C417.179 487.237 419.9 500.996 420.581 502.356C420.959 503.112 422.017 505.229 422.924 507.119C424.663 510.823 428.821 515.662 432.602 518.308C434.189 519.442 436.079 519.971 438.423 519.971C441.523 519.971 442.203 519.593 445.076 516.644C451.124 510.37 454.375 497.518 454.375 480.282C454.375 470.908 454.149 468.262 452.939 465.162C452.107 463.045 451.049 460.853 450.444 460.173C449.915 459.568 449.461 458.736 449.461 458.358C449.461 457.149 444.018 452.688 440.616 451.176C438.725 450.345 436.079 449.665 434.794 449.665C432.526 449.665 426.856 451.932 424.966 453.52C424.512 453.974 423.076 454.956 421.79 455.712C419.825 456.846 419.295 457.754 418.917 460.777C418.161 466.069 417.027 469.849 415.969 470.983C415.44 471.512 414.154 473.176 413.172 474.612C410.45 478.543 400.017 489.883 391.851 497.896C379.982 509.538 365.995 519.517 352.084 526.397C338.778 532.974 335.527 533.881 325.094 533.881C316.777 533.956 315.643 533.805 311.863 531.915C302.791 527.606 295.987 518.081 290.997 502.961C290.468 501.298 289.334 498.047 288.426 495.779C286.839 491.546 278.598 467.203 278.598 466.598C278.598 466.069 282.832 466.296 285.1 466.976C286.309 467.354 290.392 468.337 294.097 469.244C324.489 476.199 337.568 478.392 348.304 478.392C368.566 478.392 385.954 468.262 385.954 456.468C385.954 453.444 383.46 447.699 378.545 439.308C375.597 434.318 368.717 417.006 364.786 404.684C363.047 399.241 361.157 393.646 360.627 392.21C360.098 390.774 358.057 384.801 356.167 378.98C352.16 366.431 350.723 362.424 349.287 359.174C348.682 357.888 348.153 356.376 348.153 355.772C348.153 355.167 347.85 354.411 347.472 354.033C347.094 353.579 345.885 351.085 344.751 348.363C340.819 339.291 337.19 331.353 329.781 315.856C323.506 302.702 316.702 287.733 314.509 282.442C313.451 279.796 312.09 276.62 311.485 275.411C310.427 272.992 306.873 263.315 304.379 255.604C303.471 253.034 302.942 250.464 303.169 249.934C303.396 249.405 305.361 248.12 307.554 247.137C309.671 246.154 313.678 244.34 316.399 243.131C319.121 241.845 322.675 240.182 324.338 239.426C327.664 237.914 338.173 231.866 347.321 226.272C364.861 215.462 387.391 193.992 399.714 176.377C413.398 156.722 422.395 132.455 424.436 109.171C425.117 101.611 424.663 102.216 433.962 96.0922C440.011 92.0099 449.083 83.3162 451.88 78.8559C452.863 77.1927 454.527 73.6396 455.585 70.9181C457.248 66.4578 457.399 64.8702 457.399 54.6645C457.324 42.7956 456.417 38.0329 453.09 31.2291C449.839 24.7276 446.739 22.8377 441.372 24.1229C434.038 26.0128 427.007 36.4453 424.134 49.9774C423.454 52.9257 422.546 57.4616 422.093 59.9563C421.639 62.4511 421.186 64.5678 421.11 64.719C420.959 64.8702 419.144 64.0386 417.027 62.9803C414.003 61.3171 412.794 61.0903 411.13 61.6195C409.24 62.2999 409.013 62.7535 408.787 66.3066C408.56 70.2377 410.677 80.4434 412.945 85.8865C413.55 87.3985 415.364 91.4052 417.027 94.8071L420.051 100.931L419.22 108.793C416.12 140.695 401.982 169.952 377.789 194.672C362.291 210.548 341.575 225.214 320.255 235.571C301.884 244.491 301.203 244.642 299.691 239.502C298.33 235.042 299.238 233.076 304.152 229.75C313.149 223.702 323.279 213.647 330.084 204.122C332.503 200.72 334.544 197.696 334.544 197.545C334.544 195.882 339.156 190.892 343.087 188.322C362.215 175.697 370.531 152.413 365.542 124.971C363.878 115.823 361.837 108.264 359.418 101.913C358.586 99.6453 357.376 96.319 356.847 94.6559C356.318 92.9171 355.486 90.876 355.108 90.12C354.655 89.2884 352.311 84.6013 349.892 79.6119C344.373 68.4989 336.812 56.3276 329.403 46.7267C323.884 39.6961 314.812 30.3219 311.107 27.9784C310.049 27.298 307.932 25.786 306.42 24.652C299.238 19.0578 278.976 10.4396 266.879 7.79367C249.264 3.86257 242.46 2.653 227.188 0.53625C222.349 -0.0685351 198.307 -0.219731 194.678 0.385053ZM447.193 32.6654C451.502 37.3525 453.317 57.6884 450.142 67.0626C447.647 74.4712 445.076 78.4023 438.877 84.6013C432.148 91.254 426.478 95.2607 424.285 94.9583C422.32 94.6559 418.388 87.1717 415.818 78.7803C414.759 75.3784 413.928 72.2032 413.928 71.7497C413.928 69.9353 416.347 70.0865 419.22 72.052C424.134 75.454 425.192 74.1688 427.083 62.4511C429.048 50.2042 432.375 39.2425 435.172 35.2358C438.272 30.9267 444.32 29.6415 447.193 32.6654ZM350.194 119.754C353.067 121.947 355.108 125.953 357.301 133.816C360.023 143.417 358.586 151.354 353.067 157.629C348.682 162.543 347.85 161.787 348.304 153.32C348.833 143.946 347.85 134.647 345.507 127.239C343.465 121.04 343.465 120.737 344.751 119.301C346.49 117.335 347.094 117.411 350.194 119.754ZM125.275 161.409C126.333 162.316 126.635 163.753 126.635 167.608C126.635 175.546 128.072 190.287 129.357 195.428C130.038 197.998 130.416 200.947 130.264 201.854C129.584 206.995 120.587 201.552 116.429 193.387C114.614 189.834 112.271 180.838 112.271 177.285C112.271 170.103 116.127 162.845 120.965 160.804C123.233 159.897 123.762 159.973 125.275 161.409ZM354.957 167.306C353.218 170.783 345.431 180.535 344.448 180.535C343.163 180.535 342.861 178.192 343.919 176.151C344.448 175.017 345.204 173.051 345.431 171.766C345.885 169.876 347.019 168.666 350.648 166.323C353.218 164.66 355.562 163.526 355.864 163.828C356.242 164.131 355.789 165.718 354.957 167.306ZM124.594 208.129C126.106 208.733 128.525 209.263 129.962 209.263C132.532 209.263 132.684 209.489 135.783 215.688C137.825 219.771 138.732 222.417 138.278 222.87C137.371 223.777 130.264 218.939 124.367 213.194C118.319 207.373 118.395 205.558 124.594 208.129ZM294.475 240.711C295.306 242.601 295.987 244.642 295.987 245.247C295.987 247.137 303.774 270.648 306.193 276.167C306.798 277.376 309.368 283.349 311.939 289.397C314.509 295.444 316.853 300.661 317.155 301.114C317.534 301.492 318.592 303.911 319.65 306.406C320.709 308.901 324.035 316.007 326.984 322.282C329.932 328.481 333.032 335.058 333.864 336.797C337.946 345.868 337.871 345.642 346.641 369.153C347.397 371.194 348.38 374.142 348.833 375.578C349.211 377.015 349.892 379.207 350.345 380.492C350.799 381.702 352.084 385.482 353.143 388.808C355.108 394.629 358.964 405.818 361.761 413.755C363.803 419.425 368.414 430.614 370.38 434.545C371.287 436.435 373.555 440.82 375.37 444.373C378.243 449.967 378.697 451.403 378.697 455.788C378.772 459.87 378.47 461.231 376.882 463.575C372.951 469.396 361.913 473.1 348.531 473.1C340.668 473.1 325.169 471.134 315.492 468.942C302.035 465.918 283.285 461.307 272.928 458.434C270.886 457.829 267.635 456.998 265.745 456.544C263.855 456.09 259.773 454.956 256.673 454.125C253.573 453.293 249.339 452.084 247.223 451.554C242.384 450.345 230.514 446.943 224.164 445.053C221.442 444.297 217.586 443.087 215.469 442.483C213.428 441.954 209.345 440.744 206.397 439.912C203.524 439.081 198.534 437.644 195.434 436.813C192.335 435.906 188.252 434.696 186.362 434.091C184.472 433.562 181.07 432.579 178.726 431.899C172.678 430.311 172.224 429.48 174.492 424.566C175.551 422.374 177.516 418.14 178.802 415.267C180.162 412.319 182.053 408.237 182.96 406.196C184.774 402.265 188.328 394.553 191.276 388.052C196.644 376.334 204.129 359.552 205.716 355.545C206.775 353.05 207.909 350.329 208.287 349.497C208.665 348.665 209.875 345.566 210.933 342.693C211.991 339.745 213.201 336.721 213.579 335.889C215.394 332.261 221.215 315.402 223.332 307.54C227.717 291.891 230.514 279.569 231.724 270.875C232.177 267.549 232.707 263.693 232.934 262.332C233.387 259.233 235.655 256.889 238.075 256.889H239.889L239.813 269.136C239.738 279.796 239.965 282.139 241.401 286.524C243.518 293.176 244.501 295.066 248.432 299.451C253.573 305.423 260.302 309.128 268.013 310.564C274.213 311.698 277.842 310.64 280.639 306.935C283.21 303.609 286.158 297.712 286.158 295.898C286.158 295.142 286.536 293.932 286.99 293.025C288.048 291.135 289.938 278.51 290.014 272.841C290.165 267.171 288.653 256.889 286.839 250.615C284.646 243.282 285.024 241.089 288.804 239.048C290.468 238.141 292.131 237.385 292.433 237.309C292.736 237.234 293.718 238.821 294.475 240.711ZM280.79 248.196C282.907 254.47 285.327 268.002 285.402 274.126C285.402 286.675 280.261 298.695 273.306 302.248C264.082 306.935 251.91 299.602 247.071 286.373C244.954 280.703 244.35 274.05 245.03 264.222L245.559 255.982L247.903 254.999C249.188 254.47 253.346 253.109 257.051 251.975C260.831 250.917 264.989 249.481 266.35 248.876C267.711 248.271 269.223 247.818 269.752 247.818C270.282 247.818 271.869 247.137 273.306 246.306C277.388 244.038 279.505 244.567 280.79 248.196ZM29.4853 304.138C33.0386 304.894 36.7432 307.842 40.8257 313.134C43.8499 317.065 45.0595 318.048 46.7228 318.124C48.8397 318.124 49.0665 317.821 51.7126 311.093C52.4686 309.128 54.2831 308.447 56.022 309.657C59.2729 311.698 61.3898 321.601 59.1973 324.247C57.9877 325.684 52.8466 329.464 52.0906 329.464C51.7882 329.464 50.9566 329.917 50.3517 330.446C48.6885 331.883 40.7501 334.604 36.5164 335.133C31.6777 335.738 21.6981 334.302 17.6912 332.336C5.67024 326.591 1.96568 318.426 8.08954 311.018C9.2992 309.506 11.7941 307.54 13.4574 306.633C16.8595 304.894 24.193 303.004 26.0831 303.382C26.6879 303.533 28.2756 303.836 29.4853 304.138ZM439.481 456.317C442.657 458.736 447.722 466.372 448.781 470.454C450.142 475.217 449.159 495.628 447.269 502.961C445.908 508.026 445.227 509.463 442.657 511.806C438.045 516.266 435.475 515.662 430.56 509.009C428.897 506.741 427.536 504.624 427.536 504.322C427.536 504.02 427.083 502.81 426.478 501.676C423.454 495.855 422.622 491.017 422.622 478.77C422.698 467.203 422.773 466.447 424.739 462.289C425.797 459.87 427.839 456.846 429.199 455.561C431.241 453.671 431.997 453.369 434.265 453.822C435.701 454.125 438.045 455.183 439.481 456.317ZM16.4815 500.013C20.4129 502.054 28.0488 508.48 31.6021 512.638C34.8531 516.493 36.1383 518.534 39.9185 525.338C43.3962 531.764 43.8499 532.444 46.6472 536.149C49.8225 540.231 49.8225 541.214 46.874 547.186C44.6815 551.495 43.245 552.78 38.482 554.443C32.7362 556.409 29.6365 555.275 24.193 549.227C21.8493 546.657 19.5812 543.784 19.052 542.953C15.9523 537.509 14.667 534.788 12.7769 529.42C10.8113 523.826 10.6601 522.465 10.5845 512.411C10.5845 506.363 10.8113 500.844 11.1137 500.088C11.7941 498.501 13.3818 498.425 16.4815 500.013Z" fill="currentColor"/>
<path d="M98.8136 19.7382C98.3599 20.2673 98.1331 21.4769 98.4355 22.3841C98.8136 23.8204 99.3428 24.0472 102.745 24.0472C118.47 24.1984 133.742 30.1707 145.158 40.6788C148.712 44.0051 151.282 44.9123 152.265 43.098C153.172 41.2836 152.416 39.9228 148.56 36.4453C141.303 30.0195 130.038 23.896 120.587 21.4013C111.061 18.831 100.25 17.9994 98.8136 19.7382Z" fill="currentColor"/>
<path d="M92.2359 47.8606C86.2633 49.4482 84.6756 50.2042 81.7271 52.7745C79.7614 54.5133 79.0054 55.7984 79.0054 57.386C79.0054 60.4099 81.2735 60.2587 85.2804 57.008C88.5314 54.4377 94.504 52.0185 97.755 52.0185C99.9475 52.0185 111.893 54.8157 113.632 55.7984C119.756 59.0492 123.687 60.3343 125.199 59.5783C126.106 59.0492 126.56 58.2932 126.333 57.5372C126.106 56.9324 125.879 56.3276 125.879 56.1008C125.879 55.5716 116.58 51.4893 111.817 49.8262C107.81 48.4654 98.8134 46.6511 96.7721 46.8023C96.3941 46.8023 94.3528 47.2559 92.2359 47.8606Z" fill="currentColor"/>
<path d="M220.308 85.055C219.476 90.498 227.566 102.443 237.016 109.776C245.711 116.579 254.859 119.981 265.745 120.586C272.55 120.964 273.835 120.813 274.742 119.754C276.406 117.789 274.515 116.277 270.433 116.277C264.611 116.277 255.01 113.933 248.659 110.985C240.418 107.054 232.556 99.721 228.019 91.632C226.129 88.3057 224.315 85.433 223.861 85.1306C222.803 84.3746 220.384 84.3746 220.308 85.055Z" fill="currentColor"/>
<path d="M100.326 92.9171C92.463 96.0166 76.8887 123.308 76.5863 134.42C76.4351 139.108 80.3664 139.637 81.5005 135.176C82.8613 129.658 84.5246 124.139 85.4319 122.325C92.9922 106.298 98.36 99.1162 104.106 97.2262C107.735 96.0922 109.474 93.9755 107.735 92.8415C106.298 91.9343 102.594 91.9343 100.326 92.9171Z" fill="currentColor"/>
<path d="M160.959 111.59C159.977 113.858 160.733 117.26 163.53 122.93C169.805 135.781 182.204 143.643 196.568 143.795C204.129 143.87 213.201 141.3 213.806 138.956C214.033 137.974 213.73 137.142 212.823 136.688C210.857 135.63 209.799 135.781 207.153 137.218C205.49 138.125 202.844 138.503 196.947 138.503C189.386 138.503 188.706 138.427 183.716 135.932C175.324 131.926 167.612 122.476 165.647 113.933C165.118 111.439 161.791 109.775 160.959 111.59Z" fill="currentColor"/>
<path d="M98.8891 119.074C93.4457 124.517 89.7411 130.867 86.1878 141.149C84.0709 147.121 83.6173 156.117 85.2805 159.292C86.5658 161.863 88.5315 162.997 89.6655 161.863C90.4216 161.107 90.4216 159.746 89.6655 155.663C88.5315 149.238 89.3631 144.399 92.7653 137.293C96.1674 130.187 99.4939 125.424 104.257 121.04C108.566 116.957 109.398 115.294 107.281 114.463C104.937 113.555 103.955 114.085 98.8891 119.074Z" fill="currentColor"/>
<path d="M285.78 136.462C281.697 137.369 277.086 139.486 273.835 141.905C270.357 144.475 266.501 149.162 266.501 150.825C266.501 151.279 265.972 152.035 265.292 152.564C264.687 153.169 264.233 154.454 264.384 155.512C264.535 157.024 265.065 157.553 266.652 157.705C268.467 157.931 268.92 157.478 270.735 153.925C273.154 149.162 276.405 145.76 280.941 143.417C287.519 140.015 299.237 142.056 304.227 147.575C307.629 151.203 311.939 149.389 309.293 145.458C305.815 140.09 292.357 134.95 285.78 136.462Z" fill="currentColor"/>
<path d="M170.863 166.172C161.715 167.684 155.894 172.219 154.457 179.099C153.701 182.728 153.777 183.484 154.987 185.374C156.347 187.415 156.423 187.415 157.406 186.13C158.011 185.298 158.616 183.862 158.842 182.803C159.825 178.041 161.715 175.243 165.117 173.202C168.444 171.161 168.973 171.085 179.18 171.085C188.176 171.161 190.52 171.388 194.83 172.824C202.314 175.395 206.699 174.336 202.995 170.859C199.29 167.381 180.162 164.584 170.863 166.172Z" fill="currentColor"/>
<path d="M228.548 170.481C226.053 173.202 225.524 174.865 226.431 177.133C227.263 179.326 230.06 179.704 230.665 177.663C231.799 173.958 234.294 173.127 237.016 175.621C237.999 176.453 238.452 176.529 239.133 175.848C241.855 173.127 238.226 168.44 233.311 168.44C231.194 168.44 229.985 168.969 228.548 170.481Z" fill="currentColor"/>
<path d="M273.835 185.676C273.154 186.432 272.55 187.49 272.55 187.944C272.55 189.985 266.653 199.964 263.175 203.744C258.714 208.658 251.23 213.647 244.728 216.066C237.999 218.486 227.641 218.561 222.273 216.066C217.208 213.723 213.277 210.548 210.479 206.541C208.06 202.988 205.792 202.232 204.658 204.5C203.826 206.163 204.28 207.448 206.775 210.321C210.706 215.008 214.108 217.73 218.871 220.073C223.256 222.19 224.617 222.492 231.421 222.719C242.308 223.097 249.869 220.678 260.226 213.345C269.374 206.843 278.295 193.463 277.691 187.112C277.388 184.24 275.649 183.635 273.835 185.676Z" fill="currentColor"/>
</svg>
